# xmcd CD database file
#
# Track frame offsets:
#	150
#	151823
#	185960
#	222768
#
# Disc length: 3869 seconds
#
# Revision: 0
# Processed by: cddbd v1.4PL0 Copyright (c) Steve Scherf et al.
# Submitted via: CDex 1.50Beta5
#
DISCID=320f1b04
DTITLE=Hannes Löschel, Paul Skrepek  and Martin Zrost - Albert
DYEAR=2000
DGENRE=Jazz
TTITLE0=Man Power
TTITLE1=L Cafe
TTITLE2=I MAX
TTITLE3=Pennies from Heaven
EXTD=YEAR: 2000
EXTT0=
EXTT1=
EXTT2=
EXTT3=
PLAYORDER=
